# xmcd
#
# Track frame offsets: 
#        150
#        2610
#        17697
#        28490
#        39667
#        52737
#        63277
#        74257
#        83587
#        95695
#        107320
#        113850
#        124530
#        132117
#        148852
#        157272
#        170437
#        180175
#        189765
#
# Disc length: 2672 seconds
#
# Revision: 0
# Processed by: cddbd v1.5PL3 Copyright (c) Steve Scherf et al.
# Submitted via: ExactAudioCopy v0.95a5
#
DISCID=ef0a6e13
DTITLE=Patsy Cline - The Birth of a Star
DYEAR=1900
DGENRE=Country
TTITLE0=Intro
TTITLE1=Walking After Midnight
TTITLE2=Try Again
TTITLE3=Two Cigarettes In An Ashtray
TTITLE4=Then You'll Know
TTITLE5=Too Many Secrets
TTITLE6=Come On In (And Make Yourself At Home)
TTITLE7=I Don't Wanna
TTITLE8=Your Cheatin' Heart
TTITLE9=Don't Leave Me Again
TTITLE10=The Man Upstairs
TTITLE11=Stop The World (And Let Me Off)
TTITLE12=Down By The Riverside
TTITLE13=Write Me In Care Of The Blues
TTITLE14=(Ain't) No Wheels On This Ship
TTITLE15=Hungry For Love
TTITLE16=Walking Dream
TTITLE17=Walking After Midnight
TTITLE18=Awards Dialogue
EXTD=
EXTT0=
EXTT1=
EXTT2=
EXTT3=
EXTT4=
EXTT5=
EXTT6=
EXTT7=
EXTT8=
EXTT9=
EXTT10=
EXTT11=
EXTT12=
EXTT13=
EXTT14=
EXTT15=
EXTT16=
EXTT17=
EXTT18=
PLAYORDER=
